<svg width="27" height="28" viewBox="0 0 27 28" fill="none" xmlns="http://www.w3.org/2000/svg">
<path d="M25.6975 23.2894L18.8116 16.3929C20.1691 14.7635 20.9856 12.6813 20.9856 10.407C20.9856 5.21864 16.731 1 11.4977 1C6.26437 1 2 5.22357 2 10.412C2 15.6003 6.25453 19.819 11.4879 19.819C13.711 19.819 15.7571 19.056 17.3803 17.781L24.2908 24.6973C24.6941 25.1009 25.2942 25.1009 25.6975 24.6973C26.1008 24.2936 26.1008 23.6931 25.6975 23.2894ZM4.0166 10.412C4.0166 6.33607 7.37104 3.02318 11.4879 3.02318C15.6047 3.02318 18.9591 6.33607 18.9591 10.412C18.9591 14.4878 15.6047 17.8007 11.4879 17.8007C7.37104 17.8007 4.0166 14.4829 4.0166 10.412Z" fill="#F2F6FA"/>
</svg>
