<svg width="70" height="70" viewBox="0 0 70 70" fill="none" xmlns="http://www.w3.org/2000/svg">
<path d="M35 70C15.7007 70 2.7452e-06 54.2993 6.11959e-06 35C9.49398e-06 15.7007 15.7008 2.7452e-06 35 6.11959e-06C54.2993 9.49398e-06 70 15.7008 70 35C70 54.2993 54.2993 70 35 70ZM35 2.5926C17.1306 2.5926 2.5926 17.1306 2.5926 35C2.5926 52.8694 17.1306 67.4074 35 67.4074C52.8694 67.4074 67.4074 52.8695 67.4074 35C67.4074 17.1306 52.8695 2.59261 35 2.5926Z" fill="#F2F6FA"/>
<path d="M42.0166 51.4722C41.5098 51.979 40.6905 51.979 40.1837 51.4722L25.2788 36.5673C24.4142 35.7027 24.4142 34.2975 25.2788 33.4329L40.1837 18.5281C40.4364 18.2753 40.7683 18.1483 41.1001 18.1483C41.432 18.1483 41.7638 18.2753 42.0166 18.5281C42.5235 19.0349 42.5235 19.8542 42.0166 20.3611L27.3776 35.0001L42.0166 49.6392C42.5235 50.146 42.5235 50.9653 42.0166 51.4722Z" fill="#F2F6FA"/>
</svg>
