<svg width="70" height="70" viewBox="0 0 70 70" fill="none" xmlns="http://www.w3.org/2000/svg">
<path d="M35 0C54.2993 0 70 15.7007 70 35C70 54.2993 54.2993 70 35 70C15.7007 70 0 54.2993 0 35C0 15.7007 15.7007 0 35 0ZM35 67.4074C52.8694 67.4074 67.4074 52.8694 67.4074 35C67.4074 17.1306 52.8694 2.59259 35 2.59259C17.1306 2.59259 2.5926 17.1306 2.5926 35C2.5926 52.8694 17.1306 67.4074 35 67.4074Z" fill="#F2F6FA"/>
<path d="M28.3804 18.3801C28.8872 17.8733 29.7065 17.8733 30.2133 18.3801L45.1181 33.285C45.9828 34.1496 45.9828 35.5548 45.1181 36.4194L30.2133 51.3242C29.9605 51.577 29.6287 51.704 29.2968 51.704C28.965 51.704 28.6331 51.577 28.3804 51.3242C27.8735 50.8174 27.8735 49.9981 28.3804 49.4912L43.0194 34.8522L28.3804 20.2131C27.8735 19.7062 27.8735 18.887 28.3804 18.3801Z" fill="#F2F6FA"/>
</svg>
