<svg width="203" height="28" viewBox="0 0 203 28" fill="none" xmlns="http://www.w3.org/2000/svg">
<path d="M14.6094 20.3027C14.6094 19.8457 14.5391 19.4355 14.3984 19.0723C14.2695 18.6973 14.0234 18.3574 13.6602 18.0527C13.2969 17.7363 12.7871 17.4258 12.1309 17.1211C11.4746 16.8164 10.625 16.5 9.58203 16.1719C8.42188 15.7969 7.32031 15.375 6.27734 14.9062C5.24609 14.4375 4.33203 13.8926 3.53516 13.2715C2.75 12.6387 2.12891 11.9062 1.67188 11.0742C1.22656 10.2422 1.00391 9.27539 1.00391 8.17383C1.00391 7.10742 1.23828 6.14062 1.70703 5.27344C2.17578 4.39453 2.83203 3.64453 3.67578 3.02344C4.51953 2.39062 5.51562 1.9043 6.66406 1.56445C7.82422 1.22461 9.0957 1.05469 10.4785 1.05469C12.3652 1.05469 14.0117 1.39453 15.418 2.07422C16.8242 2.75391 17.9141 3.68555 18.6875 4.86914C19.4727 6.05273 19.8652 7.40625 19.8652 8.92969H14.627C14.627 8.17969 14.4688 7.52344 14.1523 6.96094C13.8477 6.38672 13.3789 5.93555 12.7461 5.60742C12.125 5.2793 11.3398 5.11523 10.3906 5.11523C9.47656 5.11523 8.71484 5.25586 8.10547 5.53711C7.49609 5.80664 7.03906 6.17578 6.73438 6.64453C6.42969 7.10156 6.27734 7.61719 6.27734 8.19141C6.27734 8.625 6.38281 9.01758 6.59375 9.36914C6.81641 9.7207 7.14453 10.0488 7.57812 10.3535C8.01172 10.6582 8.54492 10.9453 9.17773 11.2148C9.81055 11.4844 10.543 11.748 11.375 12.0059C12.7695 12.4277 13.9941 12.9023 15.0488 13.4297C16.1152 13.957 17.0059 14.5488 17.7207 15.2051C18.4355 15.8613 18.9746 16.6055 19.3379 17.4375C19.7012 18.2695 19.8828 19.2129 19.8828 20.2676C19.8828 21.3809 19.666 22.377 19.2324 23.2559C18.7988 24.1348 18.1719 24.8789 17.3516 25.4883C16.5312 26.0977 15.5527 26.5605 14.416 26.877C13.2793 27.1934 12.0078 27.3516 10.6016 27.3516C9.33594 27.3516 8.08789 27.1875 6.85742 26.8594C5.62695 26.5195 4.50781 26.0098 3.5 25.3301C2.50391 24.6504 1.70703 23.7832 1.10938 22.7285C0.511719 21.6738 0.212891 20.4258 0.212891 18.9844H5.50391C5.50391 19.7812 5.62695 20.4551 5.87305 21.0059C6.11914 21.5566 6.46484 22.002 6.91016 22.3418C7.36719 22.6816 7.90625 22.9277 8.52734 23.0801C9.16016 23.2324 9.85156 23.3086 10.6016 23.3086C11.5156 23.3086 12.2656 23.1797 12.8516 22.9219C13.4492 22.6641 13.8887 22.3066 14.1699 21.8496C14.4629 21.3926 14.6094 20.877 14.6094 20.3027ZM29.6387 22.9395L34.7363 1.40625H37.584L38.2344 4.99219L32.8027 27H29.7441L29.6387 22.9395ZM27.0195 1.40625L31.2383 22.9395L30.8867 27H27.4766L21.7988 1.40625H27.0195ZM42.7168 22.8516L46.8828 1.40625H52.1035L46.4434 27H43.0332L42.7168 22.8516ZM39.1836 1.40625L44.3164 23.0273L44.1758 27H41.1172L35.6504 4.97461L36.3535 1.40625H39.1836ZM78.0664 1.40625H83.3223V18.3164C83.3223 20.2852 82.9004 21.9434 82.0566 23.291C81.2246 24.6387 80.0703 25.6523 78.5938 26.332C77.1289 27.0117 75.4414 27.3516 73.5312 27.3516C71.6211 27.3516 69.9219 27.0117 68.4336 26.332C66.957 25.6523 65.7969 24.6387 64.9531 23.291C64.1211 21.9434 63.7051 20.2852 63.7051 18.3164V1.40625H68.9785V18.3164C68.9785 19.4648 69.1602 20.4023 69.5234 21.1289C69.8867 21.8555 70.4082 22.3887 71.0879 22.7285C71.7793 23.0684 72.5938 23.2383 73.5312 23.2383C74.4922 23.2383 75.3066 23.0684 75.9746 22.7285C76.6543 22.3887 77.1699 21.8555 77.5215 21.1289C77.8848 20.4023 78.0664 19.4648 78.0664 18.3164V1.40625ZM92.3047 12.041V27H87.2422V7.98047H91.9883L92.3047 12.041ZM91.5664 16.8223H90.1953C90.1953 15.416 90.377 14.1504 90.7402 13.0254C91.1035 11.8887 91.6133 10.9219 92.2695 10.125C92.9258 9.31641 93.7051 8.70117 94.6074 8.2793C95.5215 7.8457 96.541 7.62891 97.666 7.62891C98.5566 7.62891 99.3711 7.75781 100.109 8.01562C100.848 8.27344 101.48 8.68359 102.008 9.24609C102.547 9.80859 102.957 10.5527 103.238 11.4785C103.531 12.4043 103.678 13.5352 103.678 14.8711V27H98.5801V14.8535C98.5801 14.0098 98.4629 13.3535 98.2285 12.8848C97.9941 12.416 97.6484 12.0879 97.1914 11.9004C96.7461 11.7012 96.1953 11.6016 95.5391 11.6016C94.8594 11.6016 94.2676 11.7363 93.7637 12.0059C93.2715 12.2754 92.8613 12.6504 92.5332 13.1309C92.2168 13.5996 91.9766 14.1504 91.8125 14.7832C91.6484 15.416 91.5664 16.0957 91.5664 16.8223ZM112.871 7.98047V27H107.791V7.98047H112.871ZM107.475 3.02344C107.475 2.28516 107.732 1.67578 108.248 1.19531C108.764 0.714844 109.455 0.474609 110.322 0.474609C111.178 0.474609 111.863 0.714844 112.379 1.19531C112.906 1.67578 113.17 2.28516 113.17 3.02344C113.17 3.76172 112.906 4.37109 112.379 4.85156C111.863 5.33203 111.178 5.57227 110.322 5.57227C109.455 5.57227 108.764 5.33203 108.248 4.85156C107.732 4.37109 107.475 3.76172 107.475 3.02344ZM123.523 23.3086L127.742 7.98047H133.033L126.617 27H123.418L123.523 23.3086ZM120.623 7.98047L124.859 23.3262L124.947 27H121.73L115.314 7.98047H120.623ZM143.809 27.3516C142.332 27.3516 141.008 27.1172 139.836 26.6484C138.664 26.168 137.668 25.5059 136.848 24.6621C136.039 23.8184 135.418 22.8398 134.984 21.7266C134.551 20.6016 134.334 19.4062 134.334 18.1406V17.4375C134.334 15.9961 134.539 14.6777 134.949 13.4824C135.359 12.2871 135.945 11.25 136.707 10.3711C137.48 9.49219 138.418 8.81836 139.52 8.34961C140.621 7.86914 141.863 7.62891 143.246 7.62891C144.594 7.62891 145.789 7.85156 146.832 8.29688C147.875 8.74219 148.748 9.375 149.451 10.1953C150.166 11.0156 150.705 12 151.068 13.1484C151.432 14.2852 151.613 15.5508 151.613 16.9453V19.0547H136.496V15.6797H146.639V15.293C146.639 14.5898 146.51 13.9629 146.252 13.4121C146.006 12.8496 145.631 12.4043 145.127 12.0762C144.623 11.748 143.979 11.584 143.193 11.584C142.525 11.584 141.951 11.7305 141.471 12.0234C140.99 12.3164 140.598 12.7266 140.293 13.2539C140 13.7812 139.777 14.4023 139.625 15.1172C139.484 15.8203 139.414 16.5938 139.414 17.4375V18.1406C139.414 18.9023 139.52 19.6055 139.73 20.25C139.953 20.8945 140.264 21.4512 140.662 21.9199C141.072 22.3887 141.564 22.752 142.139 23.0098C142.725 23.2676 143.387 23.3965 144.125 23.3965C145.039 23.3965 145.889 23.2207 146.674 22.8691C147.471 22.5059 148.156 21.9609 148.73 21.2344L151.191 23.9062C150.793 24.4805 150.248 25.0312 149.557 25.5586C148.877 26.0859 148.057 26.5195 147.096 26.8594C146.135 27.1875 145.039 27.3516 143.809 27.3516ZM159.559 12.1289V27H154.496V7.98047H159.26L159.559 12.1289ZM165.289 7.85742L165.201 12.5508C164.955 12.5156 164.656 12.4863 164.305 12.4629C163.965 12.4277 163.654 12.4102 163.373 12.4102C162.658 12.4102 162.037 12.5039 161.51 12.6914C160.994 12.8672 160.561 13.1309 160.209 13.4824C159.869 13.834 159.611 14.2617 159.436 14.7656C159.271 15.2695 159.178 15.8438 159.154 16.4883L158.135 16.1719C158.135 14.9414 158.258 13.8105 158.504 12.7793C158.75 11.7363 159.107 10.8281 159.576 10.0547C160.057 9.28125 160.643 8.68359 161.334 8.26172C162.025 7.83984 162.816 7.62891 163.707 7.62891C163.988 7.62891 164.275 7.65234 164.568 7.69922C164.861 7.73438 165.102 7.78711 165.289 7.85742ZM177.963 21.7441C177.963 21.3809 177.857 21.0527 177.646 20.7598C177.436 20.4668 177.043 20.1973 176.469 19.9512C175.906 19.6934 175.092 19.459 174.025 19.248C173.064 19.0371 172.168 18.7734 171.336 18.457C170.516 18.1289 169.801 17.7363 169.191 17.2793C168.594 16.8223 168.125 16.2832 167.785 15.6621C167.445 15.0293 167.275 14.3086 167.275 13.5C167.275 12.7031 167.445 11.9531 167.785 11.25C168.137 10.5469 168.635 9.92578 169.279 9.38672C169.936 8.83594 170.732 8.4082 171.67 8.10352C172.619 7.78711 173.686 7.62891 174.869 7.62891C176.521 7.62891 177.939 7.89258 179.123 8.41992C180.318 8.94727 181.232 9.67383 181.865 10.5996C182.51 11.5137 182.832 12.5566 182.832 13.7285H177.77C177.77 13.2363 177.664 12.7969 177.453 12.4102C177.254 12.0117 176.938 11.7012 176.504 11.4785C176.082 11.2441 175.531 11.127 174.852 11.127C174.289 11.127 173.803 11.2266 173.393 11.4258C172.982 11.6133 172.666 11.8711 172.443 12.1992C172.232 12.5156 172.127 12.8672 172.127 13.2539C172.127 13.5469 172.186 13.8105 172.303 14.0449C172.432 14.2676 172.637 14.4727 172.918 14.6602C173.199 14.8477 173.562 15.0234 174.008 15.1875C174.465 15.3398 175.027 15.4805 175.695 15.6094C177.066 15.8906 178.291 16.2598 179.369 16.7168C180.447 17.1621 181.303 17.7715 181.936 18.5449C182.568 19.3066 182.885 20.3086 182.885 21.5508C182.885 22.3945 182.697 23.168 182.322 23.8711C181.947 24.5742 181.408 25.1895 180.705 25.7168C180.002 26.2324 179.158 26.6367 178.174 26.9297C177.201 27.2109 176.105 27.3516 174.887 27.3516C173.117 27.3516 171.617 27.0352 170.387 26.4023C169.168 25.7695 168.242 24.9668 167.609 23.9941C166.988 23.0098 166.678 22.002 166.678 20.9707H171.477C171.5 21.6621 171.676 22.2188 172.004 22.6406C172.344 23.0625 172.771 23.3672 173.287 23.5547C173.814 23.7422 174.383 23.8359 174.992 23.8359C175.648 23.8359 176.193 23.748 176.627 23.5723C177.061 23.3848 177.389 23.1387 177.611 22.834C177.846 22.5176 177.963 22.1543 177.963 21.7441ZM194.926 27.3516C193.449 27.3516 192.125 27.1172 190.953 26.6484C189.781 26.168 188.785 25.5059 187.965 24.6621C187.156 23.8184 186.535 22.8398 186.102 21.7266C185.668 20.6016 185.451 19.4062 185.451 18.1406V17.4375C185.451 15.9961 185.656 14.6777 186.066 13.4824C186.477 12.2871 187.062 11.25 187.824 10.3711C188.598 9.49219 189.535 8.81836 190.637 8.34961C191.738 7.86914 192.98 7.62891 194.363 7.62891C195.711 7.62891 196.906 7.85156 197.949 8.29688C198.992 8.74219 199.865 9.375 200.568 10.1953C201.283 11.0156 201.822 12 202.186 13.1484C202.549 14.2852 202.73 15.5508 202.73 16.9453V19.0547H187.613V15.6797H197.756V15.293C197.756 14.5898 197.627 13.9629 197.369 13.4121C197.123 12.8496 196.748 12.4043 196.244 12.0762C195.74 11.748 195.096 11.584 194.311 11.584C193.643 11.584 193.068 11.7305 192.588 12.0234C192.107 12.3164 191.715 12.7266 191.41 13.2539C191.117 13.7812 190.895 14.4023 190.742 15.1172C190.602 15.8203 190.531 16.5938 190.531 17.4375V18.1406C190.531 18.9023 190.637 19.6055 190.848 20.25C191.07 20.8945 191.381 21.4512 191.779 21.9199C192.189 22.3887 192.682 22.752 193.256 23.0098C193.842 23.2676 194.504 23.3965 195.242 23.3965C196.156 23.3965 197.006 23.2207 197.791 22.8691C198.588 22.5059 199.273 21.9609 199.848 21.2344L202.309 23.9062C201.91 24.4805 201.365 25.0312 200.674 25.5586C199.994 26.0859 199.174 26.5195 198.213 26.8594C197.252 27.1875 196.156 27.3516 194.926 27.3516Z" fill="white"/>
</svg>
